<svg xmlns="http://www.w3.org/2000/svg" width="1200" height="630" viewBox="0 0 1200 630" role="img" aria-labelledby="title desc">
  <title id="title">GPT Knowledge Builder</title>
  <desc id="desc">Product banner for GPT Knowledge Builder.</desc>
  <defs>
    <linearGradient id="bg" x1="0%" y1="0%" x2="100%" y2="100%">
      <stop offset="0%" stop-color="#0f172a"/>
      <stop offset="100%" stop-color="#111827"/>
    </linearGradient>
    <linearGradient id="accent" x1="0%" y1="0%" x2="100%" y2="0%">
      <stop offset="0%" stop-color="#14b8a6"/>
      <stop offset="100%" stop-color="#38bdf8"/>
    </linearGradient>
  </defs>
  <rect width="1200" height="630" fill="url(#bg)"/>
  <rect x="72" y="72" width="1056" height="486" rx="28" fill="#111827" stroke="#1f2937" stroke-width="2"/>
  <rect x="112" y="126" width="280" height="378" rx="22" fill="#0b1220" stroke="#1f2937"/>
  <rect x="430" y="126" width="624" height="86" rx="18" fill="#101826"/>
  <rect x="430" y="236" width="448" height="150" rx="22" fill="#111827" stroke="#1f2937"/>
  <rect x="902" y="236" width="152" height="268" rx="22" fill="#0f172a" stroke="#1f2937"/>
  <rect x="430" y="410" width="448" height="94" rx="22" fill="#0f172a" stroke="#1f2937"/>
  <rect x="134" y="162" width="236" height="58" rx="14" fill="#0f172a"/>
  <rect x="134" y="236" width="236" height="58" rx="14" fill="#0f172a"/>
  <rect x="134" y="310" width="236" height="58" rx="14" fill="#0f172a"/>
  <rect x="134" y="384" width="236" height="58" rx="14" fill="#0f172a"/>
  <rect x="460" y="154" width="172" height="14" rx="7" fill="url(#accent)"/>
  <rect x="460" y="180" width="324" height="12" rx="6" fill="#334155"/>
  <rect x="460" y="266" width="286" height="16" rx="8" fill="#f8fafc" opacity="0.95"/>
  <rect x="460" y="296" width="348" height="12" rx="6" fill="#334155"/>
  <rect x="460" y="320" width="308" height="12" rx="6" fill="#334155"/>
  <rect x="460" y="344" width="252" height="12" rx="6" fill="#334155"/>
  <rect x="460" y="438" width="236" height="14" rx="7" fill="#14b8a6"/>
  <rect x="460" y="464" width="382" height="12" rx="6" fill="#334155"/>
  <rect x="928" y="268" width="100" height="100" rx="18" fill="url(#accent)" opacity="0.9"/>
  <rect x="928" y="388" width="100" height="14" rx="7" fill="#f8fafc" opacity="0.95"/>
  <rect x="928" y="416" width="84" height="10" rx="5" fill="#334155"/>
  <rect x="928" y="438" width="72" height="10" rx="5" fill="#334155"/>
  <text x="112" y="560" fill="#e5e7eb" font-family="Segoe UI, Arial, sans-serif" font-size="56" font-weight="700">GPT Knowledge Builder</text>
  <text x="112" y="598" fill="#94a3b8" font-family="Segoe UI, Arial, sans-serif" font-size="24">Local-first desktop packaging for Custom GPT knowledge uploads</text>
</svg>
